<?xml version="1.0" standalone="no"?>
<!DOCTYPE svg PUBLIC "-//W3C//DTD SVG 20010904//EN"
 "http://www.w3.org/TR/2001/REC-SVG-20010904/DTD/svg10.dtd">
<svg version="1.0" xmlns="http://www.w3.org/2000/svg"
 width="1024.000000pt" height="1024.000000pt" viewBox="0 0 1024.000000 1024.000000"
 preserveAspectRatio="xMidYMid meet">
<metadata>
Created by potrace 1.16, written by Peter Selinger 2001-2019
</metadata>
<g transform="translate(0.000000,1024.000000) scale(0.100000,-0.100000)"
fill="#000000" stroke="none">
<path d="M4870 8101 c-22 -6 -31 -25 -78 -163 l-54 -157 -36 -7 c-65 -10 -231
-54 -288 -75 l-55 -21 -65 59 c-142 127 -189 163 -204 158 -31 -12 -222 -121
-287 -165 -80 -53 -79 -44 -26 -225 20 -66 36 -129 37 -140 1 -13 -46 -65
-139 -156 l-140 -136 -125 28 c-147 33 -191 36 -212 12 -21 -24 -130 -225
-158 -291 l-23 -53 23 -32 c13 -18 60 -74 103 -125 l80 -93 -32 -97 c-17 -53
-39 -137 -49 -187 l-18 -89 -64 -19 c-36 -10 -109 -31 -162 -48 l-97 -29 -7
-48 c-4 -26 -8 -123 -8 -215 -1 -149 1 -170 16 -181 10 -7 64 -25 120 -40 57
-15 124 -34 149 -42 l47 -15 12 -67 c7 -37 28 -120 46 -186 l34 -118 -59 -67
c-32 -36 -71 -77 -86 -91 -42 -40 -67 -87 -59 -112 11 -36 164 -311 184 -332
18 -18 22 -18 175 9 l157 27 107 -104 c58 -57 122 -116 141 -131 l34 -26 -23
-78 c-55 -182 -66 -233 -55 -250 18 -28 343 -223 373 -223 7 0 63 47 123 105
60 58 116 105 124 105 8 0 65 -15 127 -34 61 -18 143 -39 180 -47 37 -7 71
-18 76 -23 4 -6 23 -72 41 -146 18 -74 38 -141 46 -149 15 -16 313 -28 407
-17 l57 7 20 67 c10 37 29 107 42 157 l23 90 70 12 c39 7 125 29 193 50 l123
36 119 -118 c105 -103 122 -117 145 -111 34 9 307 175 319 194 3 5 -21 19 -52
32 -139 56 -353 175 -547 305 l-211 141 -49 -13 c-198 -53 -458 -68 -656 -38
-483 73 -917 410 -1117 867 -90 206 -128 406 -119 638 8 231 57 421 162 630
75 148 160 263 289 388 198 191 413 311 676 375 355 87 705 46 1019 -119 l85
-45 55 54 c78 76 210 174 327 242 54 32 109 64 120 71 35 21 70 194 46 230 -8
13 -242 158 -311 193 l-43 22 -122 -120 -122 -121 -74 29 c-63 24 -213 63
-284 73 -15 2 -29 36 -70 163 l-52 160 -44 7 c-58 8 -337 8 -370 -1z"/>
<path d="M7255 7679 c-60 -10 -175 -35 -255 -55 -640 -161 -1088 -452 -1279
-831 -82 -164 -110 -375 -63 -478 l23 -50 18 53 c27 79 79 147 209 274 179
176 398 309 673 412 105 39 302 96 331 96 17 0 18 -12 18 -165 0 -341 -57
-620 -174 -860 l-44 -90 -1 328 -1 327 -70 0 -70 0 0 -145 0 -145 -145 0 -145
0 0 145 0 145 -70 0 -70 0 0 -345 0 -345 70 0 70 0 0 140 0 140 145 0 145 0 0
-140 0 -140 60 0 61 0 -43 -61 c-61 -88 -171 -203 -229 -240 -27 -18 -49 -33
-49 -35 0 -1 25 5 56 13 55 14 57 14 83 -9 26 -23 26 -23 7 0 -11 12 -17 24
-15 26 2 2 36 17 74 33 296 124 558 427 718 828 112 282 167 616 167 1021 l0
174 -47 -1 c-27 -1 -97 -10 -158 -20z"/>
<path d="M4686 6639 c-113 -17 -192 -90 -215 -200 -6 -28 -11 -116 -11 -198 0
-222 -29 -291 -121 -291 l-39 0 0 -74 c0 -77 5 -86 49 -86 27 0 66 -35 87 -77
15 -31 19 -72 24 -228 5 -183 7 -193 33 -248 45 -91 116 -136 240 -151 l47 -6
0 90 c0 90 0 90 -25 90 -35 0 -86 23 -110 50 -18 20 -21 41 -25 219 -6 189 -7
198 -34 254 -15 32 -36 63 -46 69 -17 11 -16 14 11 47 56 71 62 100 68 306 5
162 9 195 24 219 20 30 72 56 112 56 25 0 25 1 25 85 0 96 9 89 -94 74z"/>
<path d="M5030 6568 l0 -85 41 -7 c57 -9 96 -39 109 -84 5 -20 10 -103 10
-184 0 -178 11 -234 56 -294 l35 -45 -30 -35 c-49 -55 -61 -116 -61 -301 0
-179 -9 -219 -54 -248 -14 -9 -43 -19 -66 -22 l-40 -6 0 -85 0 -85 61 6 c82 7
166 50 201 102 44 64 58 140 58 308 0 83 5 167 11 188 16 52 58 89 108 96 l41
6 0 78 0 79 -32 0 c-42 0 -76 18 -102 53 -19 26 -21 46 -27 230 -5 182 -8 207
-29 255 -41 94 -113 142 -237 158 l-53 7 0 -85z"/>
<path d="M3983 6048 l-243 -173 0 -41 0 -41 233 -163 c127 -90 238 -168 245
-173 9 -7 12 10 12 80 l0 90 -155 103 c-86 57 -152 106 -148 110 4 4 73 52
152 106 79 54 145 103 148 109 2 7 3 46 1 88 l-3 77 -242 -172z"/>
<path d="M5580 6133 l1 -88 154 -104 c85 -57 152 -107 150 -111 -2 -4 -72 -51
-154 -106 l-151 -99 0 -88 0 -89 63 44 c445 314 437 307 437 341 0 34 8 27
-432 340 l-68 48 0 -88z"/>
<path d="M5900 5023 l0 -338 75 3 75 4 0 129 0 129 140 0 140 0 0 -130 0 -130
75 0 75 0 0 335 0 335 -75 0 -75 0 0 -140 0 -140 -140 0 -140 0 0 140 0 140
-75 0 -75 0 0 -337z"/>
<path d="M3613 3073 c-10 -4 -13 -114 -13 -504 l0 -499 95 0 95 0 2 262 3 263
60 25 c50 21 76 25 162 25 98 0 104 -1 129 -26 37 -38 43 -83 44 -332 l0 -218
93 3 92 3 0 275 0 275 -27 57 c-74 159 -267 190 -500 79 l-58 -27 0 167 c0
143 -2 168 -16 173 -18 7 -143 7 -161 -1z"/>
<path d="M5495 3074 c-6 -3 -9 -137 -8 -381 3 -463 5 -510 26 -550 37 -70 120
-104 221 -89 l46 7 0 85 0 84 -38 0 c-21 0 -43 5 -50 12 -9 9 -12 116 -12 419
0 362 -2 408 -16 413 -17 7 -153 7 -169 0z"/>
<path d="M2630 2555 l0 -485 100 0 100 0 0 149 0 149 193 4 c212 6 264 16 336
68 77 57 104 125 103 266 -1 149 -43 238 -136 286 -75 39 -156 48 -433 48
l-263 0 0 -485z m564 295 c53 -27 69 -61 70 -148 1 -144 -28 -162 -269 -162
l-165 0 0 166 0 166 168 -4 c119 -3 175 -8 196 -18z"/>
<path d="M4582 2558 l3 -483 98 -3 97 -3 0 188 0 188 262 0 263 0 3 88 3 87
-266 0 -265 0 0 125 0 125 285 0 285 0 0 85 0 85 -385 0 -385 0 2 -482z"/>
<path d="M6049 2815 c-48 -7 -92 -15 -98 -19 -7 -4 -11 -40 -11 -93 0 -72 2
-84 15 -79 64 24 151 37 246 37 159 0 201 -16 219 -80 22 -81 32 -76 -165 -73
-146 3 -184 1 -231 -14 -73 -23 -118 -67 -139 -136 -42 -141 10 -244 142 -285
115 -36 429 -16 555 34 l40 16 -4 251 c-5 287 -10 310 -84 374 -47 42 -85 56
-189 72 -90 12 -188 11 -296 -5z m381 -519 l0 -74 -50 -11 c-67 -15 -203 -14
-252 1 -51 15 -72 46 -64 93 11 56 37 64 214 65 l152 0 0 -74z"/>
<path d="M7100 2819 c-95 -7 -189 -27 -261 -56 l-39 -15 2 -462 3 -461 98 -3
97 -3 0 146 0 146 30 -16 c57 -29 161 -47 241 -41 145 10 249 68 296 164 25
51 28 69 32 182 5 176 -19 269 -86 332 -43 41 -132 77 -204 83 -35 3 -75 7
-89 9 -14 1 -68 -1 -120 -5z m224 -193 c53 -31 78 -79 84 -161 8 -126 -44
-210 -148 -235 -64 -15 -156 -7 -216 19 l-44 20 0 185 0 185 48 6 c26 3 54 8
62 10 8 2 50 2 93 0 60 -2 86 -9 121 -29z"/>
</g>
</svg>
